# xmcd
#
# Track frame offsets:
#	150
#	23417
#	42465
#	64572
#	86822
#	105950
#	132655
#	149775
#	166045
#	189170
#	207567
#	225565
#
# Disc length: 3232 seconds
#
# Revision: 0
# Processed by: cddbd v1.4PL0 Copyright (c) Steve Scherf et al.
# Submitted via: dBpowerAMP V4.0
#
DISCID=a00c9e0c
DTITLE=Tikinho - Tikinho
DYEAR=1900
DGENRE=Gospel
TTITLE0=Busque Ao Senhor
TTITLE1=Um Lugar No Paraíso
TTITLE2=Satisfação Total
TTITLE3=Mundo Melhor
TTITLE4=Ao Seu Lado
TTITLE5=Salmo 121
TTITLE6=Dois Ou Três
TTITLE7=Canto Bem Alto
TTITLE8=Sim, Viemos Te Louvar
TTITLE9=Vem espírito santo
TTITLE10=Sou feliz
TTITLE11=Louvamos ao senhor
EXTD=
EXTT0=
EXTT1=
EXTT2=
EXTT3=
EXTT4=
EXTT5=
EXTT6=
EXTT7=
EXTT8=
EXTT9=
EXTT10=
EXTT11=
PLAYORDER=
